HIERARCHY
ROOT hip
{
	OFFSET 0.000000 0.000000 0.000000 
	CHANNELS 6 Xposition Yposition Zposition Xrotation Zrotation Yrotation
	JOINT abdomen
	{
		OFFSET 0.000000 3.402643 0.000000 
		CHANNELS 3 Xrotation Zrotation Yrotation
		JOINT chest
		{
			OFFSET 0.000000 8.438565 -0.680529 
			CHANNELS 3 Xrotation Zrotation Yrotation
			JOINT neck
			{
				OFFSET 0.000000 10.207942 -0.272212 
				CHANNELS 3 Xrotation Zrotation Yrotation
				JOINT head
				{
					OFFSET 0.000000 3.130431 0.000000 
					CHANNELS 3 Xrotation Zrotation Yrotation
					End Site
					{
						OFFSET 0.000000 3.130435 0.000000 
					}
				}
			}
			JOINT lCollar
			{
				OFFSET 3.470700 6.669187 -0.816635 
				CHANNELS 3 Yrotation Zrotation Xrotation
				JOINT lShldr
				{
					OFFSET 3.198488 0.000000 0.000000 
					CHANNELS 3 Zrotation Yrotation Xrotation
					JOINT lForeArm
					{
						OFFSET 10.139888 0.000000 0.000000 
						CHANNELS 3 Yrotation Zrotation Xrotation
						JOINT lHand
						{
							OFFSET 8.370511 0.000000 0.000000 
							CHANNELS 3 Zrotation Yrotation Xrotation
							End Site
							{
								OFFSET 4.083176 0.000000 0.000000 
							}
						}
					}
				}
			}
			JOINT rCollar
			{
				OFFSET -3.470700 6.669187 -0.816635 
				CHANNELS 3 Yrotation Zrotation Xrotation
				JOINT rShldr
				{
					OFFSET -3.198488 0.000000 0.000000 
					CHANNELS 3 Zrotation Yrotation Xrotation
					JOINT rForeArm
					{
						OFFSET -10.139888 0.000000 0.000000 
						CHANNELS 3 Yrotation Zrotation Xrotation
						JOINT rHand
						{
							OFFSET -8.370511 0.000000 0.000000 
							CHANNELS 3 Zrotation Yrotation Xrotation
							End Site
							{
								OFFSET -4.083176 0.000000 0.000000 
							}
						}
					}
				}
			}
		}
	}
	JOINT lThigh
	{
		OFFSET 5.308129 -1.633274 1.361059 
		CHANNELS 3 Xrotation Zrotation Yrotation
		JOINT lShin
		{
			OFFSET -2.041588 -20.007561 0.000000 
			CHANNELS 3 Xrotation Zrotation Yrotation
			JOINT lFoot
			{
				OFFSET 0.000000 -19.190928 -1.224953 
				CHANNELS 3 Xrotation Yrotation Zrotation
				End Site
				{
					OFFSET 0.000000 -2.449906 4.627600 
				}
			}
		}
	}
	JOINT rThigh
	{
		OFFSET -5.308129 -1.633274 1.361059 
		CHANNELS 3 Xrotation Zrotation Yrotation
		JOINT rShin
		{
			OFFSET 2.041588 -20.007561 0.000000 
			CHANNELS 3 Xrotation Zrotation Yrotation
			JOINT rFoot
			{
				OFFSET 0.000000 -19.190928 -1.224953 
				CHANNELS 3 Xrotation Yrotation Zrotation
				End Site
				{
					OFFSET 0.000000 -2.449906 4.627600 
				}
			}
		}
	}
}
MOTION
Frames: 13
Frame Time: 0.033333
-6.163360 43.115387 -2.533611 -0.847416 7.665186 67.856720 0.000000 0.000000 0.000000 4.112108 4.100780 -0.378621 16.927395 -3.375751 -2.399651 15.234257 -9.817997 -2.912957 8.315741 17.306648 -8.825414 -85.177811 20.868240 60.496815 -41.039894 -1.790918 -15.504675 -2.236386 -4.472167 -0.982907 -6.064052 -18.300837 -8.863067 84.698578 -20.404362 31.764570 35.577911 0.107324 20.482513 -17.617662 -1.176806 -1.662132 -1.082040 1.128460 17.880621 29.014988 -1.734845 -3.142710 -18.895657 0.658363 -2.403677 -20.510693 -12.681456 0.068438 67.681458 -1.260284 -8.762608 3.153874 5.929057 -7.008190 
-5.774235 43.188305 -2.481509 -0.738609 7.421266 69.719849 0.000000 0.000000 0.000000 3.986187 4.364457 -0.066650 17.250454 -3.805685 -4.356325 14.876333 -9.222755 -2.729085 8.561978 17.259295 -9.413116 -85.624908 22.069294 59.798969 -41.064289 -1.746297 -15.192248 -2.383727 -4.515140 -0.963696 -5.897605 -18.469570 -9.525006 85.139915 -21.305880 31.315788 35.494629 -0.015841 21.105379 -16.863863 -0.951924 -1.678622 -0.634014 0.808751 16.375460 28.477390 -1.763855 -3.343014 -18.778358 0.602779 -1.789319 -21.225901 -11.228401 -0.447175 64.240814 -0.910157 -7.269367 0.002304 5.822869 -7.188860 
-5.398251 43.272949 -2.434079 -0.452914 7.323993 71.905624 0.000000 0.000000 0.000000 4.271519 4.586887 0.157146 17.257885 -4.390186 -6.581906 14.431558 -8.637444 -2.558220 8.907209 16.827650 -9.070093 -85.750748 22.063801 59.275326 -41.263851 -1.703526 -15.081992 -1.895184 -4.383353 -1.005387 -5.834136 -18.653191 -9.170449 85.333565 -20.736832 30.927816 35.524872 0.062116 20.660616 -17.104202 -1.027906 -1.672250 0.138310 0.413364 15.245018 27.494465 -1.847026 -4.132888 -18.500475 0.545007 -1.265879 -21.361536 -10.192953 -1.081280 59.088089 -0.470552 -7.157549 -2.508350 5.594647 -6.030709 
-4.794997 43.325005 -2.364642 -0.078699 6.923822 74.570663 0.000000 0.000000 0.000000 3.940672 4.978496 0.079246 17.600477 -5.125912 -9.064521 14.037825 -8.030624 -2.373473 9.208395 16.429174 -9.397139 -85.903641 22.936089 59.164593 -41.326954 -1.693043 -14.997299 -1.418104 -4.255548 -1.037726 -5.656103 -19.093025 -9.617795 85.493355 -21.260996 30.915451 35.838448 0.038121 20.620846 -16.854528 -0.949812 -1.680737 0.673148 0.287406 14.467811 26.603474 -1.937120 -5.074291 -18.801315 0.573153 -1.483331 -21.245508 -9.480632 -2.410445 52.284847 0.056613 -7.852103 -3.565030 5.556075 -5.834974 
-4.160918 43.380112 -2.243616 0.285237 6.845619 77.544685 0.000000 0.000000 0.000000 3.961231 5.134255 0.091702 17.945456 -5.629563 -11.920073 13.715037 -7.441326 -2.197667 9.400023 16.273865 -9.597066 -86.015144 23.364763 59.221886 -41.155487 -1.871416 -17.579161 -0.084130 -3.882530 -1.141172 -5.599342 -19.227123 -9.834270 85.472031 -21.582500 30.637701 36.237926 0.071642 20.245518 -16.999163 -0.993531 -1.677015 1.167282 0.393680 12.247266 26.340780 -2.132645 -7.802629 -17.986397 0.414455 -0.463043 -20.247267 -9.166648 -3.307007 44.153080 0.594464 -8.027138 -3.257811 5.485826 -5.017066 
-3.447516 43.397820 -2.066942 0.344387 7.031125 80.453186 0.000000 0.000000 0.000000 3.866024 5.583050 0.327971 18.795877 -6.133782 -15.169241 13.450910 -6.675474 -1.971780 9.358091 16.321669 -10.684048 -86.200111 25.076891 59.269089 -40.894375 -2.059006 -17.783522 -0.220047 -3.921360 -1.131643 -5.402202 -19.533913 -11.150162 85.385406 -23.474241 30.782795 36.674965 0.033991 20.356592 -17.395813 -1.105480 -1.664745 2.145698 0.838728 10.919775 26.103642 -2.299106 -9.290871 -18.132633 0.442949 -0.501955 -18.537510 -8.863241 -3.900967 34.981689 1.092255 -7.225887 -1.047557 5.499800 -4.461703 
-2.781536 43.459351 -1.904830 0.886629 7.567464 84.208832 0.000000 0.000000 0.000000 4.974185 5.506656 0.264281 18.679546 -6.394471 -18.872242 13.393888 -5.819584 -1.717780 9.413424 16.357664 -9.715965 -86.336525 23.536615 59.342823 -40.767136 -2.128122 -17.720387 -1.164793 -4.182405 -1.060908 -5.672108 -19.348347 -9.979742 84.920242 -21.951344 30.586864 37.132992 0.106014 19.525877 -18.056602 -1.297802 -1.659350 3.521253 0.722527 8.153100 25.171379 -2.429884 -10.194722 -17.839518 0.438915 -0.715966 -15.721828 -9.618702 -5.032204 24.267109 1.513621 -5.291697 3.211746 5.483634 -2.631345 
-2.119567 43.457005 -1.729380 1.604710 7.272569 88.651291 0.000000 0.000000 0.000000 4.875999 5.497732 -0.361153 18.874607 -6.673775 -22.611422 13.465178 -4.913985 -1.442975 9.471425 16.426313 -9.212225 -86.257561 22.625814 60.071991 -40.856930 -2.116059 -18.145281 -1.077280 -4.157184 -1.068129 -5.828018 -19.244381 -9.318736 84.520706 -21.261236 29.860889 37.329247 0.081771 19.483187 -17.792774 -1.227195 -1.661164 3.732413 0.702355 4.823595 24.783491 -2.528805 -11.026085 -17.829638 0.464400 -0.657038 -12.975776 -10.846692 -7.677885 12.868269 1.767258 -1.730744 8.395328 5.437099 -0.179593 
-1.105495 43.448246 -1.477483 2.256475 7.660141 92.763092 0.000000 0.000000 0.000000 5.214971 4.969682 -0.180923 19.340004 -6.146689 -26.581352 13.538208 -4.125330 -1.215728 9.044015 17.122932 -9.108313 -85.988312 22.240034 61.330181 -41.206001 -1.823856 -17.333672 -1.436531 -4.260804 -1.040295 -6.312359 -18.700047 -9.097939 84.142204 -21.370787 29.912743 37.558498 -0.205052 21.428999 -16.698318 -0.903038 -1.677025 5.017834 0.830231 1.517838 24.227879 -2.640341 -11.519346 -18.083599 0.409945 -0.220865 -6.200891 -11.414492 -7.589404 -3.368574 1.913736 -0.912811 11.775828 5.318421 2.147880 
-0.642007 43.387218 -1.209921 2.623768 8.087329 96.600288 0.000000 0.000000 0.000000 4.989153 4.922776 0.077742 20.365202 -5.752266 -30.514427 13.924639 -3.257416 -0.957588 8.535202 17.799137 -9.992821 -85.578362 23.353331 62.358807 -41.711571 -1.782650 -16.751982 -0.736004 -4.069289 -1.088653 -6.582180 -18.501562 -10.021444 83.832161 -22.991335 28.774508 37.231167 0.036053 19.952030 -17.736610 -1.204356 -1.664737 9.630143 1.219092 -2.905620 18.125383 -2.774242 -11.575723 -20.723757 0.135034 3.492950 -6.502561 -12.750180 -6.648443 -3.407056 1.923205 -0.006484 4.657687 4.948900 3.234597 
0.367063 43.265541 -0.935115 2.467653 8.361490 100.125130 0.000000 0.000000 0.000000 3.827483 5.690488 0.135995 21.951439 -5.720068 -34.122719 14.018797 -2.488856 -0.734109 7.851362 18.227913 -11.860982 -85.124527 26.361231 63.052235 -42.155464 -1.808937 -17.412348 -2.088594 -4.439428 -0.993451 -6.449424 -18.826786 -12.187358 83.523659 -26.352472 28.875717 37.032181 -0.098368 20.961512 -16.814920 -0.940503 -1.679737 10.042630 2.410360 -7.483420 19.340107 -2.788379 -10.543487 -22.225639 0.247980 2.986629 -6.219300 -13.227739 -7.887482 -3.409888 1.919207 0.237650 -1.766590 4.497956 5.051076 
1.614923 43.216316 -0.620507 3.015526 8.981890 103.772324 0.000000 0.000000 0.000000 3.814868 5.252074 0.076599 22.688473 -5.073362 -37.207458 14.485616 -1.884564 -0.555664 7.390207 18.898027 -12.406749 -84.648712 27.154615 63.482559 -42.431190 -1.828177 -17.909880 -1.641903 -4.309932 -1.029170 -6.743353 -18.441610 -12.620718 83.259735 -27.115368 27.633448 36.765675 0.102617 19.798365 -17.521877 -1.144726 -1.664982 11.730748 3.405085 -11.300474 18.772709 -2.827971 -10.222256 -22.777370 0.316411 2.494405 -4.755674 -13.767833 -10.673291 -3.410503 1.919598 0.022606 -5.622747 4.233818 6.091292 
2.684613 43.160389 -0.275729 3.386293 9.495414 107.073334 0.000000 0.000000 0.000000 4.166500 5.035553 -0.033739 22.774668 -4.555623 -39.655956 15.324056 -1.319002 -0.389971 7.132164 18.298479 -10.275920 -83.340614 24.863564 63.347336 -42.538284 -1.814161 -17.755253 -2.247890 -4.475626 -0.974691 -6.984027 -17.500883 -10.227292 82.699196 -24.429007 26.681627 36.610241 0.046299 20.197222 -17.162502 -1.041372 -1.668950 13.053641 4.695421 -14.666475 18.572697 -2.854577 -9.872981 -23.368042 0.376448 1.927941 -2.871462 -13.779628 -12.640018 -3.361754 1.918433 -0.766287 -6.456489 4.236274 5.566069 
